MutatorSansBoldCondensed.ufo
<glyph name="comma" format="2">
  <advance width="250"/>
  <unicode hex="002C"/>
  <outline>
    <contour>
      <point x="220" y="0" type="line"/>
      <point x="220" y="300" type="line"/>
      <point x="30" y="300" type="line"/>
      <point x="30" y="0" type="line"/>
      <point x="109" y="-16" type="line"/>
      <point x="101" y="12" type="line"/>
      <point x="79" y="-143" type="line"/>
      <point x="151" y="-145" type="line"/>
    </contour>
  </outline>
</glyph>
<glyph name="period" format="2">
  <advance width="250"/>
  <unicode hex="002E"/>
  <outline>
    <contour>
      <point x="30" y="0" type="line"/>
      <point x="220" y="0" type="line"/>
      <point x="220" y="300" type="line"/>
      <point x="30" y="300" type="line"/>
    </contour>
  </outline>
</glyph>
<glyph name="B" format="2">
  <advance width="710"/>
  <unicode hex="0042"/>
  <outline>
    <contour>
      <point x="30" y="0" type="line"/>
      <point x="340" y="0" type="line"/>
      <point x="340" y="800" type="line"/>
      <point x="30" y="800" type="line"/>
    </contour>
    <contour>
      <point x="280" y="347" type="line"/>
      <point x="345" y="347" type="line" smooth="yes"/>
      <point x="374.0" y="347.0"/>
      <point x="397" y="340"/>
      <point x="397" y="292" type="curve" smooth="yes"/>
      <point x="397" y="249"/>
      <point x="374.0" y="238.0"/>
      <point x="345" y="238" type="curve" smooth="yes"/>
      <point x="280" y="238" type="line"/>
      <point x="280" y="0" type="line"/>
      <point x="396" y="0" type="line" smooth="yes"/>
      <point x="651.0" y="0.0"/>
      <point x="700" y="94"/>
      <point x="700" y="230" type="curve" smooth="yes"/>
      <point x="700" y="356"/>
      <point x="645" y="417"/>
      <point x="551" y="434" type="curve"/>
      <point x="541" y="377" type="line"/>
      <point x="618" y="392"/>
      <point x="690" y="444"/>
      <point x="690" y="563" type="curve" smooth="yes"/>
      <point x="690" y="711"/>
      <point x="621.0" y="800.0"/>
      <point x="385" y="800" type="curve" smooth="yes"/>
      <point x="280" y="800" type="line"/>
      <point x="280" y="574" type="line"/>
      <point x="345" y="574" type="line" smooth="yes"/>
      <point x="374.0" y="574.0"/>
      <point x="397" y="564"/>
      <point x="397" y="523" type="curve" smooth="yes"/>
      <point x="397" y="475"/>
      <point x="374.0" y="470.0"/>
      <point x="345" y="470" type="curve" smooth="yes"/>
      <point x="280" y="470" type="line"/>
    </contour>
  </outline>
</glyph>
<glyph name="C" format="2">
  <advance width="822"/>
  <unicode hex="0043"/>
  <outline>
    <contour>
      <point x="512" y="378" type="line"/>
      <point x="510" y="284"/>
      <point x="486" y="254"/>
      <point x="426" y="254" type="curve" smooth="yes"/>
      <point x="418" y="254" type="line" smooth="yes"/>
      <point x="362" y="254"/>
      <point x="342" y="298"/>
      <point x="342" y="403" type="curve" smooth="yes"/>
      <point x="342" y="504"/>
      <point x="362" y="546"/>
      <point x="418" y="546" type="curve" smooth="yes"/>
      <point x="426" y="546" type="line" smooth="yes"/>
      <point x="486" y="546"/>
      <point x="510" y="518"/>
      <point x="512" y="428" type="curve"/>
      <point x="802" y="457" type="line"/>
      <point x="783" y="696"/>
      <point x="645" y="810"/>
      <point x="434" y="810" type="curve" smooth="yes"/>
      <point x="409" y="810" type="line" smooth="yes"/>
      <point x="170" y="810"/>
      <point x="20" y="679"/>
      <point x="20" y="403" type="curve" smooth="yes"/>
      <point x="20" y="124"/>
      <point x="170" y="-10"/>
      <point x="409" y="-10" type="curve" smooth="yes"/>
      <point x="434" y="-10" type="line" smooth="yes"/>
      <point x="645" y="-10"/>
      <point x="784" y="107"/>
      <point x="802" y="350" type="curve"/>
    </contour>
  </outline>
</glyph>
<glyph name="D" format="2">
  <advance width="763"/>
  <unicode hex="0044"/>
  <outline>
    <contour>
      <point x="30" y="0" type="line"/>
      <point x="319" y="0" type="line"/>
      <point x="319" y="800" type="line"/>
      <point x="30" y="800" type="line"/>
    </contour>
    <contour>
      <point x="263" y="546" type="line"/>
      <point x="345" y="546" type="line" smooth="yes"/>
      <point x="401" y="546"/>
      <point x="421" y="504"/>
      <point x="421" y="403" type="curve" smooth="yes"/>
      <point x="421" y="298"/>
      <point x="401" y="254"/>
      <point x="345" y="254" type="curve" smooth="yes"/>
      <point x="255" y="254" type="line"/>
      <point x="255" y="0" type="line"/>
      <point x="353" y="0" type="line" smooth="yes"/>
      <point x="592" y="0"/>
      <point x="743" y="131"/>
      <point x="743" y="403" type="curve" smooth="yes"/>
      <point x="743" y="672"/>
      <point x="592" y="800"/>
      <point x="353" y="800" type="curve" smooth="yes"/>
      <point x="263" y="800" type="line"/>
    </contour>
  </outline>
</glyph>
<glyph name="E" format="2">
  <advance width="597"/>
  <unicode hex="0045"/>
  <anchor x="312" y="841" name="top"/>
  <outline>
    <contour>
      <point x="40" y="0" type="line" smooth="yes"/>
      <point x="330" y="0" type="line"/>
      <point x="330" y="800" type="line"/>
      <point x="40" y="800" type="line" smooth="yes"/>
    </contour>
    <contour>
      <point x="130" y="530" type="line"/>
      <point x="570" y="530" type="line"/>
      <point x="570" y="800" type="line"/>
      <point x="130" y="800" type="line"/>
    </contour>
    <contour>
      <point x="130" y="0" type="line"/>
      <point x="570" y="0" type="line"/>
      <point x="570" y="270" type="line"/>
      <point x="130" y="270" type="line"/>
    </contour>
    <contour>
      <point x="130" y="315" type="line"/>
      <point x="536" y="315" type="line"/>
      <point x="536" y="485" type="line"/>
      <point x="130" y="485" type="line"/>
    </contour>
  </outline>
</glyph>
<glyph name="F" format="2">
  <advance width="560"/>
  <unicode hex="0046"/>
  <outline>
    <contour>
      <point x="30" y="0" type="line"/>
      <point x="350" y="0" type="line"/>
      <point x="350" y="800" type="line"/>
      <point x="30" y="800" type="line"/>
    </contour>
    <contour>
      <point x="130" y="550" type="line"/>
      <point x="530" y="550" type="line"/>
      <point x="530" y="800" type="line"/>
      <point x="130" y="800" type="line"/>
    </contour>
    <contour>
      <point x="130" y="275" type="line"/>
      <point x="516" y="275" type="line"/>
      <point x="516" y="485" type="line"/>
      <point x="130" y="485" type="line"/>
    </contour>
  </outline>
</glyph>
<glyph name="G" format="2">
  <advance width="830"/>
  <unicode hex="0047"/>
  <outline>
    <contour>
      <point x="420" y="305" type="line"/>
      <point x="587" y="305" type="line"/>
      <point x="587" y="216" type="line"/>
      <point x="687" y="0" type="line"/>
      <point x="800" y="0" type="line"/>
      <point x="800" y="430" type="line"/>
      <point x="420" y="430" type="line"/>
    </contour>
    <contour>
      <point x="532" y="378" type="line"/>
      <point x="530" y="284"/>
      <point x="500" y="254"/>
      <point x="426" y="254" type="curve" smooth="yes"/>
      <point x="418" y="254" type="line" smooth="yes"/>
      <point x="362" y="254"/>
      <point x="342" y="298"/>
      <point x="342" y="403" type="curve" smooth="yes"/>
      <point x="342" y="504"/>
      <point x="366" y="546"/>
      <point x="433" y="546" type="curve" smooth="yes"/>
      <point x="441" y="546" type="line" smooth="yes"/>
      <point x="505.0" y="546"/>
      <point x="530.3387986715655" y="522.7540597795514"/>
      <point x="532" y="448" type="curve"/>
      <point x="792" y="457" type="line"/>
      <point x="773.0" y="696.0"/>
      <point x="640.0" y="810"/>
      <point x="434" y="810" type="curve" smooth="yes"/>
      <point x="409" y="810" type="line" smooth="yes"/>
      <point x="170" y="810"/>
      <point x="20" y="679"/>
      <point x="20" y="403" type="curve" smooth="yes"/>
      <point x="20" y="124"/>
      <point x="170" y="-10"/>
      <point x="409" y="-10" type="curve" smooth="yes"/>
      <point x="434" y="-10" type="line" smooth="yes"/>
      <point x="640" y="-10"/>
      <point x="774" y="107"/>
      <point x="792" y="350" type="curve"/>
    </contour>
  </outline>
</glyph>
<glyph name="H" format="2">
  <advance width="750"/>
  <unicode hex="0048"/>
  <outline>
    <contour>
      <point x="30" y="0" type="line"/>
      <point x="350" y="0" type="line"/>
      <point x="350" y="800" type="line"/>
      <point x="30" y="800" type="line"/>
    </contour>
    <contour>
      <point x="140" y="260" type="line"/>
      <point x="610" y="260" type="line"/>
      <point x="610" y="520" type="line"/>
      <point x="140" y="520" type="line"/>
    </contour>
    <contour>
      <point x="400" y="0" type="line"/>
      <point x="720" y="0" type="line"/>
      <point x="720" y="800" type="line"/>
      <point x="400" y="800" type="line"/>
    </contour>
  </outline>
</glyph>
<glyph name="K" format="2">
  <advance width="821"/>
  <unicode hex="004B"/>
  <outline>
    <contour>
      <point x="30" y="0" type="line"/>
      <point x="350" y="0" type="line"/>
      <point x="350" y="800" type="line"/>
      <point x="30" y="800" type="line"/>
    </contour>
    <contour>
      <point x="324" y="312" type="line"/>
      <point x="362" y="312" type="line"/>
      <point x="460" y="0" type="line"/>
      <point x="811" y="0" type="line"/>
      <point x="649" y="533" type="line"/>
      <point x="376" y="452" type="line"/>
      <point x="324" y="452" type="line"/>
    </contour>
    <contour>
      <point x="367" y="426" type="line"/>
      <point x="614" y="318" type="line"/>
      <point x="806" y="800" type="line"/>
      <point x="474" y="800" type="line"/>
    </contour>
  </outline>
</glyph>
<glyph name="L" format="2">
  <advance width="550"/>
  <unicode hex="004C"/>
  <outline>
    <contour>
      <point x="30" y="0" type="line"/>
      <point x="350" y="0" type="line"/>
      <point x="350" y="800" type="line"/>
      <point x="30" y="800" type="line"/>
    </contour>
    <contour>
      <point x="130" y="0" type="line"/>
      <point x="530" y="0" type="line"/>
      <point x="530" y="250" type="line"/>
      <point x="130" y="250" type="line"/>
    </contour>
  </outline>
</glyph>
<glyph name="M" format="2">
  <advance width="832"/>
  <unicode hex="004D"/>
  <outline>
    <contour>
      <point x="30" y="0" type="line"/>
      <point x="280" y="0" type="line"/>
      <point x="280" y="800" type="line"/>
      <point x="30" y="800" type="line"/>
    </contour>
    <contour>
      <point x="802" y="0" type="line"/>
      <point x="802" y="800" type="line"/>
      <point x="552" y="800" type="line"/>
      <point x="552" y="0" type="line"/>
    </contour>
    <contour>
      <point x="688" y="429" type="line"/>
      <point x="552" y="800" type="line"/>
      <point x="403" y="551" type="line"/>
      <point x="429" y="551" type="line"/>
      <point x="280" y="800" type="line"/>
      <point x="144" y="429" type="line"/>
      <point x="374" y="118" type="line"/>
      <point x="458" y="118" type="line"/>
    </contour>
  </outline>
</glyph>
<glyph name="N" format="2">
  <advance width="750"/>
  <unicode hex="004E"/>
  <outline>
    <contour>
      <point x="30" y="0" type="line"/>
      <point x="280" y="0" type="line"/>
      <point x="280" y="800" type="line"/>
      <point x="30" y="800" type="line"/>
    </contour>
    <contour>
      <point x="100" y="520" type="line"/>
      <point x="470" y="0" type="line"/>
      <point x="650" y="280" type="line"/>
      <point x="280" y="800" type="line"/>
    </contour>
    <contour>
      <point x="470" y="0" type="line"/>
      <point x="720" y="0" type="line"/>
      <point x="720" y="800" type="line"/>
      <point x="470" y="800" type="line"/>
    </contour>
  </outline>
</glyph>
<glyph name="O" format="2">
  <advance width="844"/>
  <unicode hex="004F"/>
  <outline>
    <contour>
      <point x="409" y="-10" type="curve" smooth="yes"/>
      <point x="434" y="-10" type="line"/>
      <point x="673" y="-10"/>
      <point x="824" y="124"/>
      <point x="824" y="403" type="curve" smooth="yes"/>
      <point x="824" y="679"/>
      <point x="673" y="810"/>
      <point x="434" y="810" type="curve" smooth="yes"/>
      <point x="409" y="810" type="line"/>
      <point x="170" y="810"/>
      <point x="20" y="679"/>
      <point x="20" y="403" type="curve" smooth="yes"/>
      <point x="20" y="124"/>
      <point x="170.0" y="-10.0"/>
    </contour>
    <contour>
      <point x="418" y="254" type="line" smooth="yes"/>
      <point x="362" y="254"/>
      <point x="342" y="298"/>
      <point x="342" y="403" type="curve" smooth="yes"/>
      <point x="342" y="504"/>
      <point x="362" y="546"/>
      <point x="418" y="546" type="curve" smooth="yes"/>
      <point x="426" y="546" type="line" smooth="yes"/>
      <point x="482" y="546"/>
      <point x="502" y="504"/>
      <point x="502" y="403" type="curve" smooth="yes"/>
      <point x="502" y="298"/>
      <point x="482" y="254"/>
      <point x="426" y="254" type="curve" smooth="yes"/>
    </contour>
  </outline>
</glyph>
<glyph name="P" format="2">
  <advance width="710"/>
  <unicode hex="0050"/>
  <outline>
    <contour>
      <point x="30" y="0" type="line"/>
      <point x="350" y="0" type="line"/>
      <point x="350" y="800" type="line"/>
      <point x="30" y="800" type="line"/>
    </contour>
    <contour>
      <point x="280" y="548" type="line"/>
      <point x="355" y="548" type="line" smooth="yes"/>
      <point x="384.0" y="548"/>
      <point x="397.0" y="535.9718309859155"/>
      <point x="397" y="487" type="curve" smooth="yes"/>
      <point x="397.0" y="432.3207547169811"/>
      <point x="384.0" y="424"/>
      <point x="355" y="424" type="curve" smooth="yes"/>
      <point x="280" y="424" type="line"/>
      <point x="280" y="171" type="line"/>
      <point x="378" y="171" type="line" smooth="yes"/>
      <point x="611.0" y="171"/>
      <point x="690.0" y="274.2679738562091"/>
      <point x="690" y="487" type="curve" smooth="yes"/>
      <point x="690.0" y="697.3024691358024"/>
      <point x="611" y="800"/>
      <point x="379" y="800" type="curve" smooth="yes"/>
      <point x="280" y="800" type="line"/>
    </contour>
  </outline>
</glyph>
<glyph name="Q" format="2">
  <advance width="844"/>
  <unicode hex="0051"/>
  <outline>
    <contour>
      <point x="410" y="-130" type="line"/>
      <point x="720" y="-130" type="line"/>
      <point x="610" y="170" type="line"/>
      <point x="327" y="170" type="line"/>
    </contour>
    <component base="O"/>
  </outline>
</glyph>
<glyph name="R" format="2">
  <advance width="720"/>
  <unicode hex="0052"/>
  <outline>
    <contour>
      <point x="385" y="0" type="line"/>
      <point x="705" y="0" type="line"/>
      <point x="672" y="211" type="line" smooth="yes"/>
      <point x="663" y="266"/>
      <point x="624" y="304"/>
      <point x="556" y="304" type="curve"/>
      <point x="366" y="304" type="line"/>
    </contour>
    <contour>
      <point x="30" y="0" type="line"/>
      <point x="350" y="0" type="line"/>
      <point x="350" y="800" type="line"/>
      <point x="30" y="800" type="line"/>
    </contour>
    <contour>
      <point x="280" y="548" type="line"/>
      <point x="365" y="548" type="line" smooth="yes"/>
      <point x="394" y="548"/>
      <point x="407" y="536"/>
      <point x="407" y="487" type="curve" smooth="yes"/>
      <point x="407" y="432"/>
      <point x="394" y="424"/>
      <point x="365" y="424" type="curve" smooth="yes"/>
      <point x="280" y="424" type="line"/>
      <point x="280" y="232" type="line"/>
      <point x="398" y="232" type="line" smooth="yes"/>
      <point x="611.0" y="232"/>
      <point x="700.0" y="325"/>
      <point x="700" y="517" type="curve" smooth="yes"/>
      <point x="700.0" y="708"/>
      <point x="601" y="800"/>
      <point x="387" y="800" type="curve" smooth="yes"/>
      <point x="280" y="800" type="line"/>
    </contour>
  </outline>
</glyph>
<glyph name="T" format="2">
  <advance width="620"/>
  <unicode hex="0054"/>
  <outline>
    <contour>
      <point x="150" y="0" type="line"/>
      <point x="470" y="0" type="line"/>
      <point x="470" y="800" type="line"/>
      <point x="150" y="800" type="line"/>
    </contour>
    <contour>
      <point x="20" y="550" type="line"/>
      <point x="600" y="550" type="line"/>
      <point x="600" y="800" type="line"/>
      <point x="20" y="800" type="line"/>
    </contour>
  </outline>
</glyph>
<glyph name="U" format="2">
  <advance width="756"/>
  <unicode hex="0055"/>
  <outline>
    <contour>
      <point x="377" y="-10" type="curve" smooth="yes"/>
      <point x="628" y="-10"/>
      <point x="726" y="105"/>
      <point x="726" y="343" type="curve" smooth="yes"/>
      <point x="726" y="800" type="line"/>
      <point x="406" y="800" type="line"/>
      <point x="406" y="293" type="line" smooth="yes"/>
      <point x="406" y="265"/>
      <point x="399" y="254"/>
      <point x="377" y="254" type="curve" smooth="yes"/>
      <point x="357" y="254"/>
      <point x="350" y="265"/>
      <point x="350" y="293" type="curve" smooth="yes"/>
      <point x="350" y="800" type="line"/>
      <point x="30" y="800" type="line"/>
      <point x="30" y="343" type="line" smooth="yes"/>
      <point x="30" y="105"/>
      <point x="125" y="-10"/>
    </contour>
  </outline>
</glyph>
<glyph name="V" format="2">
  <advance width="740"/>
  <unicode hex="0056"/>
  <outline>
    <contour>
      <point x="730" y="800" type="line"/>
      <point x="480" y="800" type="line"/>
      <point x="396" y="0" type="line"/>
      <point x="616" y="0" type="line"/>
    </contour>
    <contour>
      <point x="350" y="800" type="line"/>
      <point x="10" y="800" type="line"/>
      <point x="126" y="0" type="line"/>
      <point x="446" y="0" type="line"/>
    </contour>
    <contour>
      <point x="536" y="260" type="line"/>
      <point x="266" y="260" type="line"/>
      <point x="266" y="0" type="line"/>
      <point x="536" y="0" type="line"/>
    </contour>
  </outline>
</glyph>
<glyph name="W" format="2">
  <advance width="887"/>
  <unicode hex="0057"/>
  <outline>
    <contour>
      <point x="877" y="800" type="line"/>
      <point x="617" y="800" type="line"/>
      <point x="569" y="270" type="line"/>
      <point x="611" y="270" type="line"/>
      <point x="561" y="800" type="line"/>
      <point x="356" y="800" type="line"/>
      <point x="311" y="270" type="line"/>
      <point x="353" y="270" type="line"/>
      <point x="299" y="800" type="line"/>
      <point x="10" y="800" type="line"/>
      <point x="112" y="0" type="line"/>
      <point x="400" y="0" type="line"/>
      <point x="446" y="409" type="line"/>
      <point x="404" y="409" type="line"/>
      <point x="461" y="0" type="line"/>
      <point x="778" y="0" type="line"/>
    </contour>
  </outline>
</glyph>
<glyph name="X" format="2">
  <advance width="750"/>
  <unicode hex="0058"/>
  <outline>
    <contour>
      <point x="360" y="0" type="line"/>
      <point x="740" y="0" type="line"/>
      <point x="501" y="474" type="line"/>
      <point x="390" y="800" type="line"/>
      <point x="10" y="800" type="line"/>
      <point x="248" y="350" type="line"/>
    </contour>
    <contour>
      <point x="10" y="0" type="line"/>
      <point x="240" y="0" type="line"/>
      <point x="325" y="312" type="line"/>
      <point x="558" y="346" type="line"/>
      <point x="740" y="800" type="line"/>
      <point x="510" y="800" type="line"/>
      <point x="421" y="541" type="line"/>
      <point x="193" y="491" type="line"/>
    </contour>
  </outline>
</glyph>
<glyph name="Y" format="2">
  <advance width="740"/>
  <unicode hex="0059"/>
  <outline>
    <contour>
      <point x="730" y="800" type="line"/>
      <point x="500" y="800" type="line"/>
      <point x="330" y="200" type="line"/>
      <point x="530" y="200" type="line"/>
    </contour>
    <contour>
      <point x="359" y="800" type="line"/>
      <point x="10" y="800" type="line"/>
      <point x="210" y="200" type="line"/>
      <point x="500" y="200" type="line"/>
    </contour>
    <contour>
      <point x="530" y="270" type="line"/>
      <point x="210" y="270" type="line"/>
      <point x="210" y="0" type="line"/>
      <point x="530" y="0" type="line"/>
    </contour>
  </outline>
</glyph>
<glyph name="Z" format="2">
  <advance width="640"/>
  <unicode hex="005A"/>
  <outline>
    <contour>
      <point x="30" y="250" type="line"/>
      <point x="380" y="230" type="line"/>
      <point x="610" y="550" type="line"/>
      <point x="260" y="570" type="line"/>
    </contour>
    <contour>
      <point x="30" y="550" type="line"/>
      <point x="610" y="550" type="line"/>
      <point x="610" y="800" type="line"/>
      <point x="30" y="800" type="line"/>
    </contour>
    <contour>
      <point x="30" y="0" type="line"/>
      <point x="610" y="0" type="line"/>
      <point x="610" y="250" type="line"/>
      <point x="30" y="250" type="line"/>
    </contour>
  </outline>
</glyph>
<glyph name="IJ" format="2">
  <advance width="756"/>
  <unicode hex="0132"/>
  <outline>
    <contour>
      <point x="350" y="377" type="line"/>
      <point x="350" y="800" type="line"/>
      <point x="30" y="800" type="line"/>
      <point x="30" y="377" type="line"/>
    </contour>
    <contour>
      <point x="377" y="-10" type="curve" smooth="yes"/>
      <point x="628" y="-10"/>
      <point x="726" y="105"/>
      <point x="726" y="343" type="curve" smooth="yes"/>
      <point x="726" y="800" type="line"/>
      <point x="406" y="800" type="line"/>
      <point x="406" y="293" type="line" smooth="yes"/>
      <point x="406" y="265"/>
      <point x="399" y="254"/>
      <point x="377" y="254" type="curve" smooth="yes"/>
      <point x="357" y="254"/>
      <point x="350" y="265"/>
      <point x="350" y="293" type="curve" smooth="yes"/>
      <point x="350" y="332" type="line"/>
      <point x="30" y="332" type="line"/>
      <point x="30" y="303" type="line" smooth="yes"/>
      <point x="30" y="95.0"/>
      <point x="125" y="-10"/>
    </contour>
  </outline>
</glyph>
<glyph name="dot" format="2">
  <advance width="310"/>
  <unicode hex="27D1"/>
  <outline>
    <contour>
      <point x="60" y="840" type="line"/>
      <point x="250" y="840" type="line"/>
      <point x="250" y="965" type="line"/>
      <point x="60" y="965" type="line"/>
    </contour>
  </outline>
</glyph>
<glyph name="I.narrow" format="2">
  <advance width="380"/>
  <outline>
    <contour>
      <point x="30" y="0" type="line"/>
      <point x="350" y="0" type="line"/>
      <point x="350" y="800" type="line"/>
      <point x="30" y="800" type="line"/>
    </contour>
  </outline>
</glyph>
<glyph name="J.narrow" format="2">
  <advance width="658"/>
  <outline>
    <contour>
      <point x="226" y="-10" type="curve" smooth="yes"/>
      <point x="477" y="-10"/>
      <point x="628" y="105"/>
      <point x="628" y="343" type="curve" smooth="yes"/>
      <point x="628" y="800" type="line"/>
      <point x="306" y="800" type="line"/>
      <point x="306" y="409" type="line" smooth="yes"/>
      <point x="306.0" y="314.0"/>
      <point x="268" y="274"/>
      <point x="190" y="274" type="curve" smooth="yes"/>
      <point x="152.11111111111111" y="274.0"/>
      <point x="118" y="277"/>
      <point x="80" y="287" type="curve"/>
      <point x="30" y="20" type="line"/>
      <point x="86" y="0"/>
      <point x="152" y="-10"/>
    </contour>
  </outline>
</glyph>
<glyph name="arrowdown" format="2">
  <advance width="832"/>
  <outline>
    <contour>
      <point x="216" y="326" type="line"/>
      <point x="618" y="326" type="line"/>
      <point x="624" y="661" type="line"/>
      <point x="209" y="661" type="line"/>
    </contour>
    <contour>
      <point x="10" y="501" type="line"/>
      <point x="418" y="75" type="line"/>
      <point x="822" y="500" type="line"/>
    </contour>
  </outline>
</glyph>
<glyph name="arrowleft" format="2">
  <advance width="568"/>
  <outline>
    <contour>
      <point x="331" y="638" type="line"/>
      <point x="331" y="141" type="line"/>
      <point x="558" y="135" type="line"/>
      <point x="558" y="645" type="line"/>
    </contour>
    <contour>
      <point x="431" y="806" type="line"/>
      <point x="5" y="398" type="line"/>
      <point x="430" y="-6" type="line"/>
    </contour>
  </outline>
</glyph>
<glyph name="arrowright" format="2">
  <advance width="568"/>
  <outline>
    <contour>
      <point x="237" y="162" type="line"/>
      <point x="237" y="659" type="line"/>
      <point x="10" y="665" type="line"/>
      <point x="10" y="155" type="line"/>
    </contour>
    <contour>
      <point x="137" y="-6" type="line"/>
      <point x="563" y="402" type="line"/>
      <point x="138" y="806" type="line"/>
    </contour>
  </outline>
</glyph>
<glyph name="arrowup" format="2">
  <advance width="832"/>
  <outline>
    <contour>
      <point x="616" y="455" type="line"/>
      <point x="214" y="455" type="line"/>
      <point x="208" y="120" type="line"/>
      <point x="623" y="120" type="line"/>
    </contour>
    <contour>
      <point x="822" y="280" type="line"/>
      <point x="414" y="706" type="line"/>
      <point x="10" y="281" type="line"/>
    </contour>
  </outline>
</glyph>
